<mxfile host="Electron" modified="2024-11-02T10:19:08.205Z" agent="Mozilla/5.0 (Windows NT 10.0; Win64; x64) AppleWebKit/537.36 (KHTML, like Gecko) draw.io/23.0.2 Chrome/120.0.6099.109 Electron/28.1.0 Safari/537.36" etag="fUFK-_wqYl-bQ_la7cLX" version="23.0.2" type="device">
  <diagram name="Page-1" id="l6_8Zbqo3mToLTJ_OAgP">
    <mxGraphModel dx="1434" dy="836" grid="1" gridSize="10" guides="1" tooltips="1" connect="1" arrows="1" fold="1" page="1" pageScale="1" pageWidth="850" pageHeight="1100" math="0" shadow="0">
      <root>
        <mxCell id="0" />
        <mxCell id="1" parent="0" />
        <mxCell id="gSnkdhx3CTirKvqgIJ9b-17" style="edgeStyle=orthogonalEdgeStyle;rounded=0;orthogonalLoop=1;jettySize=auto;html=1;entryX=0;entryY=0.5;entryDx=0;entryDy=0;" edge="1" parent="1" source="gSnkdhx3CTirKvqgIJ9b-1" target="gSnkdhx3CTirKvqgIJ9b-2">
          <mxGeometry relative="1" as="geometry" />
        </mxCell>
        <mxCell id="gSnkdhx3CTirKvqgIJ9b-1" value="Your CSV data" style="rounded=0;whiteSpace=wrap;html=1;fillColor=#0050ef;fontColor=#ffffff;strokeColor=#001DBC;fontStyle=1" vertex="1" parent="1">
          <mxGeometry x="200" y="240" width="120" height="40" as="geometry" />
        </mxCell>
        <mxCell id="gSnkdhx3CTirKvqgIJ9b-18" style="edgeStyle=orthogonalEdgeStyle;rounded=0;orthogonalLoop=1;jettySize=auto;html=1;entryX=0;entryY=0.5;entryDx=0;entryDy=0;" edge="1" parent="1" source="gSnkdhx3CTirKvqgIJ9b-2" target="gSnkdhx3CTirKvqgIJ9b-3">
          <mxGeometry relative="1" as="geometry" />
        </mxCell>
        <mxCell id="gSnkdhx3CTirKvqgIJ9b-2" value="Data cleanup" style="ellipse;whiteSpace=wrap;html=1;fillColor=#fad7ac;strokeColor=#b46504;" vertex="1" parent="1">
          <mxGeometry x="400" y="240" width="120" height="40" as="geometry" />
        </mxCell>
        <mxCell id="gSnkdhx3CTirKvqgIJ9b-19" style="edgeStyle=orthogonalEdgeStyle;rounded=0;orthogonalLoop=1;jettySize=auto;html=1;entryX=0.5;entryY=0;entryDx=0;entryDy=0;" edge="1" parent="1" source="gSnkdhx3CTirKvqgIJ9b-3" target="gSnkdhx3CTirKvqgIJ9b-4">
          <mxGeometry relative="1" as="geometry">
            <Array as="points">
              <mxPoint x="660" y="290" />
              <mxPoint x="460" y="290" />
            </Array>
          </mxGeometry>
        </mxCell>
        <mxCell id="gSnkdhx3CTirKvqgIJ9b-3" value="Cleaned data" style="rounded=1;whiteSpace=wrap;html=1;fillColor=#ffcc99;strokeColor=#36393d;fontStyle=1" vertex="1" parent="1">
          <mxGeometry x="600" y="240" width="120" height="40" as="geometry" />
        </mxCell>
        <mxCell id="gSnkdhx3CTirKvqgIJ9b-20" style="edgeStyle=orthogonalEdgeStyle;rounded=0;orthogonalLoop=1;jettySize=auto;html=1;entryX=0;entryY=0.5;entryDx=0;entryDy=0;" edge="1" parent="1" source="gSnkdhx3CTirKvqgIJ9b-4" target="gSnkdhx3CTirKvqgIJ9b-9">
          <mxGeometry relative="1" as="geometry" />
        </mxCell>
        <mxCell id="gSnkdhx3CTirKvqgIJ9b-4" value="Extract Schema" style="ellipse;whiteSpace=wrap;html=1;fillColor=#fad9d5;strokeColor=#ae4132;" vertex="1" parent="1">
          <mxGeometry x="400" y="320" width="120" height="40" as="geometry" />
        </mxCell>
        <mxCell id="gSnkdhx3CTirKvqgIJ9b-22" style="edgeStyle=orthogonalEdgeStyle;rounded=0;orthogonalLoop=1;jettySize=auto;html=1;entryX=0;entryY=0.5;entryDx=0;entryDy=0;" edge="1" parent="1" source="gSnkdhx3CTirKvqgIJ9b-5" target="gSnkdhx3CTirKvqgIJ9b-10">
          <mxGeometry relative="1" as="geometry" />
        </mxCell>
        <mxCell id="gSnkdhx3CTirKvqgIJ9b-5" value="Prompt Generation" style="ellipse;whiteSpace=wrap;html=1;fillColor=#b0e3e6;strokeColor=#0e8088;" vertex="1" parent="1">
          <mxGeometry x="400" y="400" width="120" height="40" as="geometry" />
        </mxCell>
        <mxCell id="gSnkdhx3CTirKvqgIJ9b-26" style="edgeStyle=orthogonalEdgeStyle;rounded=0;orthogonalLoop=1;jettySize=auto;html=1;entryX=0;entryY=0.5;entryDx=0;entryDy=0;" edge="1" parent="1" source="gSnkdhx3CTirKvqgIJ9b-6" target="gSnkdhx3CTirKvqgIJ9b-13">
          <mxGeometry relative="1" as="geometry" />
        </mxCell>
        <mxCell id="gSnkdhx3CTirKvqgIJ9b-6" value="Extract Code" style="ellipse;whiteSpace=wrap;html=1;fillColor=#bac8d3;strokeColor=#23445d;" vertex="1" parent="1">
          <mxGeometry x="400" y="560" width="120" height="40" as="geometry" />
        </mxCell>
        <mxCell id="gSnkdhx3CTirKvqgIJ9b-28" style="edgeStyle=orthogonalEdgeStyle;rounded=0;orthogonalLoop=1;jettySize=auto;html=1;entryX=0;entryY=0.5;entryDx=0;entryDy=0;" edge="1" parent="1" source="gSnkdhx3CTirKvqgIJ9b-7" target="gSnkdhx3CTirKvqgIJ9b-14">
          <mxGeometry relative="1" as="geometry" />
        </mxCell>
        <mxCell id="gSnkdhx3CTirKvqgIJ9b-7" value="Execute Code" style="ellipse;whiteSpace=wrap;html=1;fillColor=#dae8fc;strokeColor=#6c8ebf;" vertex="1" parent="1">
          <mxGeometry x="400" y="640" width="120" height="40" as="geometry" />
        </mxCell>
        <mxCell id="gSnkdhx3CTirKvqgIJ9b-30" style="edgeStyle=orthogonalEdgeStyle;rounded=0;orthogonalLoop=1;jettySize=auto;html=1;entryX=1;entryY=0.5;entryDx=0;entryDy=0;" edge="1" parent="1" source="gSnkdhx3CTirKvqgIJ9b-8" target="gSnkdhx3CTirKvqgIJ9b-16">
          <mxGeometry relative="1" as="geometry" />
        </mxCell>
        <mxCell id="gSnkdhx3CTirKvqgIJ9b-8" value="Generate Results" style="ellipse;whiteSpace=wrap;html=1;fillColor=#fff2cc;strokeColor=#d6b656;" vertex="1" parent="1">
          <mxGeometry x="400" y="720" width="120" height="40" as="geometry" />
        </mxCell>
        <mxCell id="gSnkdhx3CTirKvqgIJ9b-21" style="edgeStyle=orthogonalEdgeStyle;rounded=0;orthogonalLoop=1;jettySize=auto;html=1;entryX=0.5;entryY=0;entryDx=0;entryDy=0;" edge="1" parent="1" source="gSnkdhx3CTirKvqgIJ9b-9" target="gSnkdhx3CTirKvqgIJ9b-5">
          <mxGeometry relative="1" as="geometry">
            <Array as="points">
              <mxPoint x="660" y="370" />
              <mxPoint x="460" y="370" />
            </Array>
          </mxGeometry>
        </mxCell>
        <mxCell id="gSnkdhx3CTirKvqgIJ9b-9" value="Schema file" style="rounded=1;whiteSpace=wrap;html=1;fillColor=#f8cecc;strokeColor=#b85450;fontStyle=1" vertex="1" parent="1">
          <mxGeometry x="600" y="320" width="120" height="40" as="geometry" />
        </mxCell>
        <mxCell id="gSnkdhx3CTirKvqgIJ9b-23" style="edgeStyle=orthogonalEdgeStyle;rounded=0;orthogonalLoop=1;jettySize=auto;html=1;entryX=0.5;entryY=0;entryDx=0;entryDy=0;" edge="1" parent="1" source="gSnkdhx3CTirKvqgIJ9b-10" target="gSnkdhx3CTirKvqgIJ9b-11">
          <mxGeometry relative="1" as="geometry">
            <Array as="points">
              <mxPoint x="660" y="450" />
              <mxPoint x="460" y="450" />
            </Array>
          </mxGeometry>
        </mxCell>
        <mxCell id="gSnkdhx3CTirKvqgIJ9b-10" value="Prompt" style="rounded=1;whiteSpace=wrap;html=1;fillColor=#b0e3e6;strokeColor=#0e8088;fontStyle=1" vertex="1" parent="1">
          <mxGeometry x="600" y="400" width="120" height="40" as="geometry" />
        </mxCell>
        <mxCell id="gSnkdhx3CTirKvqgIJ9b-24" style="edgeStyle=orthogonalEdgeStyle;rounded=0;orthogonalLoop=1;jettySize=auto;html=1;entryX=0;entryY=0.5;entryDx=0;entryDy=0;" edge="1" parent="1" source="gSnkdhx3CTirKvqgIJ9b-11" target="gSnkdhx3CTirKvqgIJ9b-12">
          <mxGeometry relative="1" as="geometry" />
        </mxCell>
        <mxCell id="gSnkdhx3CTirKvqgIJ9b-11" value="Ask Gemini" style="ellipse;whiteSpace=wrap;html=1;fillColor=#d0cee2;strokeColor=#56517e;" vertex="1" parent="1">
          <mxGeometry x="400" y="480" width="120" height="40" as="geometry" />
        </mxCell>
        <mxCell id="gSnkdhx3CTirKvqgIJ9b-25" style="edgeStyle=orthogonalEdgeStyle;rounded=0;orthogonalLoop=1;jettySize=auto;html=1;" edge="1" parent="1" source="gSnkdhx3CTirKvqgIJ9b-12" target="gSnkdhx3CTirKvqgIJ9b-6">
          <mxGeometry relative="1" as="geometry">
            <Array as="points">
              <mxPoint x="660" y="540" />
              <mxPoint x="460" y="540" />
            </Array>
          </mxGeometry>
        </mxCell>
        <mxCell id="gSnkdhx3CTirKvqgIJ9b-12" value="Response" style="rounded=1;whiteSpace=wrap;html=1;fillColor=#d0cee2;strokeColor=#56517e;fontStyle=1" vertex="1" parent="1">
          <mxGeometry x="600" y="480" width="120" height="40" as="geometry" />
        </mxCell>
        <mxCell id="gSnkdhx3CTirKvqgIJ9b-27" style="edgeStyle=orthogonalEdgeStyle;rounded=0;orthogonalLoop=1;jettySize=auto;html=1;entryX=0.5;entryY=0;entryDx=0;entryDy=0;" edge="1" parent="1" source="gSnkdhx3CTirKvqgIJ9b-13" target="gSnkdhx3CTirKvqgIJ9b-7">
          <mxGeometry relative="1" as="geometry">
            <Array as="points">
              <mxPoint x="660" y="610" />
              <mxPoint x="460" y="610" />
            </Array>
          </mxGeometry>
        </mxCell>
        <mxCell id="gSnkdhx3CTirKvqgIJ9b-13" value="Python code files" style="rounded=1;whiteSpace=wrap;html=1;fillColor=#bac8d3;strokeColor=#23445d;fontStyle=1" vertex="1" parent="1">
          <mxGeometry x="600" y="560" width="120" height="40" as="geometry" />
        </mxCell>
        <mxCell id="gSnkdhx3CTirKvqgIJ9b-29" style="edgeStyle=orthogonalEdgeStyle;rounded=0;orthogonalLoop=1;jettySize=auto;html=1;entryX=1;entryY=0.5;entryDx=0;entryDy=0;" edge="1" parent="1" source="gSnkdhx3CTirKvqgIJ9b-14" target="gSnkdhx3CTirKvqgIJ9b-8">
          <mxGeometry relative="1" as="geometry">
            <Array as="points">
              <mxPoint x="660" y="740" />
            </Array>
          </mxGeometry>
        </mxCell>
        <mxCell id="gSnkdhx3CTirKvqgIJ9b-14" value="Image Files" style="rounded=1;whiteSpace=wrap;html=1;fillColor=#dae8fc;strokeColor=#6c8ebf;fontStyle=1" vertex="1" parent="1">
          <mxGeometry x="600" y="640" width="120" height="40" as="geometry" />
        </mxCell>
        <mxCell id="gSnkdhx3CTirKvqgIJ9b-16" value="Results" style="rounded=0;whiteSpace=wrap;html=1;fillColor=#008a00;fontColor=#ffffff;strokeColor=#005700;fontStyle=1" vertex="1" parent="1">
          <mxGeometry x="200" y="720" width="120" height="40" as="geometry" />
        </mxCell>
        <mxCell id="gSnkdhx3CTirKvqgIJ9b-32" style="edgeStyle=orthogonalEdgeStyle;rounded=0;orthogonalLoop=1;jettySize=auto;html=1;entryX=0;entryY=0.5;entryDx=0;entryDy=0;" edge="1" parent="1" source="gSnkdhx3CTirKvqgIJ9b-31" target="gSnkdhx3CTirKvqgIJ9b-5">
          <mxGeometry relative="1" as="geometry" />
        </mxCell>
        <mxCell id="gSnkdhx3CTirKvqgIJ9b-31" value="Your Questions&lt;br&gt;(e.g. How many people earn more than 40000?)" style="rounded=0;whiteSpace=wrap;html=1;fillColor=#0050ef;fontColor=#ffffff;strokeColor=#001DBC;fontStyle=1" vertex="1" parent="1">
          <mxGeometry x="200" y="380" width="120" height="80" as="geometry" />
        </mxCell>
      </root>
    </mxGraphModel>
  </diagram>
</mxfile>
